<?xml version="1.0" standalone="no"?><svg xmlns="http://www.w3.org/2000/svg" viewBox="0 0 1440 320"><path fill="#ffffff" fill-opacity="1" d="M0,128L30,144C60,160,120,192,180,213.3C240,235,300,245,360,229.3C420,213,480,171,540,160C600,149,660,171,720,160C780,149,840,107,900,101.3C960,96,1020,128,1080,144C1140,160,1200,160,1260,181.3C1320,203,1380,245,1410,266.7L1440,288L1440,0L1410,0C1380,0,1320,0,1260,0C1200,0,1140,0,1080,0C1020,0,960,0,900,0C840,0,780,0,720,0C660,0,600,0,540,0C480,0,420,0,360,0C300,0,240,0,180,0C120,0,60,0,30,0L0,0Z"></path></svg>